<svg width="24" height="24" viewBox="0 0 24 24" fill="none" xmlns="http://www.w3.org/2000/svg">
<path d="M16.9231 10.5V7.5H13.9231V6.5H16.9231V3.5H17.9231V6.5H20.9231V7.5H17.9231V10.5H16.9231ZM8.76359 20C7.65849 20 6.7165 19.6119 5.93761 18.8356C5.15873 18.0593 4.76929 17.1141 4.76929 16C4.76929 15.2769 4.9507 14.6144 5.31351 14.0125C5.67633 13.4106 6.16159 12.9192 6.76929 12.5385V6C6.76929 5.4359 6.9616 4.96154 7.34621 4.57693C7.73083 4.19231 8.20519 4 8.76929 4C9.33339 4 9.80775 4.19231 10.1924 4.57693C10.577 4.96154 10.7693 5.4359 10.7693 6V12.5385C11.377 12.9192 11.859 13.4106 12.2154 14.0125C12.5719 14.6144 12.7565 15.2769 12.7693 16C12.7565 17.1141 12.3619 18.0593 11.5856 18.8356C10.8094 19.6119 9.86867 20 8.76359 20ZM8.76929 19C9.60262 19 10.311 18.7083 10.8943 18.125C11.4776 17.5417 11.7693 16.8333 11.7693 16C11.7693 15.5167 11.6651 15.0667 11.4568 14.65C11.2485 14.2333 10.9526 13.8833 10.5693 13.6L9.76929 13V6C9.76929 5.71667 9.67345 5.47917 9.48179 5.2875C9.29012 5.09583 9.05262 5 8.76929 5C8.48595 5 8.24845 5.09583 8.05679 5.2875C7.86512 5.47917 7.76929 5.71667 7.76929 6V13L6.96929 13.6C6.58595 13.8833 6.29012 14.2333 6.08179 14.65C5.87345 15.0667 5.76929 15.5167 5.76929 16C5.76929 16.8333 6.06095 17.5417 6.64429 18.125C7.22762 18.7083 7.93595 19 8.76929 19Z" fill="#281F6B"/>
</svg>
