<svg width="24" height="24" viewBox="0 0 24 24" fill="none" xmlns="http://www.w3.org/2000/svg">
<path d="M11.1843 10.2375L14.0952 6.75004H11.8452L12.253 3.55785L9.65146 7.31254H11.6061L11.1843 10.2375ZM10.3989 11.7476L10.9614 7.87504H8.5708L12.7788 1.80652H13.0384L12.4867 6.18754H15.2992L10.6585 11.7476H10.3989Z" fill="#281F6B" stroke="#281F6B" stroke-width="0.25"/>
<path d="M6.46875 14.7837V13.0962H4.21875V12.5337H9.28125V13.0962H7.03125V14.7837H6.46875ZM2.53125 21.9664V18.0289H3.09375V18.5914H5.34375V16.3414H4.78125V15.7789H8.71875V16.3414H8.15625V18.5914H10.4062V18.0289H10.9688V21.9664H10.4062V21.4039H3.09375V21.9664H2.53125ZM3.09375 20.8414H10.4062V19.1539H7.59375V16.3414H5.90625V19.1539H3.09375V20.8414Z" fill="#281F6B" stroke="#281F6B" stroke-width="0.25"/>
<path d="M20.0192 16.4062V14.7188H18.3317V14.1562H20.0192V12.4688H20.5817V14.1562H22.2692V14.7188H20.5817V16.4062H20.0192ZM15.4294 21.75C14.8078 21.75 14.2779 21.5317 13.8398 21.095C13.4017 20.6584 13.1826 20.1267 13.1826 19.5C13.1826 19.0933 13.2847 18.7206 13.4887 18.382C13.6928 18.0435 13.9658 17.7671 14.3076 17.5529V13.875C14.3076 13.5577 14.4158 13.2909 14.6321 13.0745C14.8485 12.8582 15.1153 12.75 15.4326 12.75C15.7499 12.75 16.0168 12.8582 16.2331 13.0745C16.4494 13.2909 16.5576 13.5577 16.5576 13.875V17.5529C16.8994 17.7671 17.1706 18.0435 17.3711 18.382C17.5716 18.7206 17.6754 19.0933 17.6826 19.5C17.6754 20.1267 17.4535 20.6584 17.0168 21.095C16.5802 21.5317 16.051 21.75 15.4294 21.75ZM15.4326 21.1875C15.9014 21.1875 16.2998 21.0234 16.6279 20.6953C16.9561 20.3672 17.1201 19.9688 17.1201 19.5C17.1201 19.2281 17.0615 18.975 16.9443 18.7406C16.8271 18.5062 16.6607 18.3094 16.4451 18.15L15.9951 17.8125V13.875C15.9951 13.7156 15.9412 13.582 15.8334 13.4742C15.7256 13.3664 15.592 13.3125 15.4326 13.3125C15.2732 13.3125 15.1396 13.3664 15.0318 13.4742C14.924 13.582 14.8701 13.7156 14.8701 13.875V17.8125L14.4201 18.15C14.2045 18.3094 14.0381 18.5062 13.9209 18.7406C13.8037 18.975 13.7451 19.2281 13.7451 19.5C13.7451 19.9688 13.9092 20.3672 14.2373 20.6953C14.5654 21.0234 14.9639 21.1875 15.4326 21.1875Z" fill="#281F6B" stroke="#281F6B" stroke-width="0.25"/>
</svg>
